# xmcd
#
# Track frame offsets: 
#        175
#        14955
#        25333
#        41981
#        58545
#        74450
#        91266
#        104553
#        116580
#        134742
#        145651
#
# Disc length: 2417 seconds
#
# Revision: 1
# Processed by: cddbd v1.5.2PL0 Copyright (c) Steve Scherf et al.
# Submitted via: ExactAudioCopy v0.95b2
#
DISCID=a9096f0b
DTITLE=Jack Logan and Bob Kimbell - Woodshedding
DYEAR=2002
DGENRE=Indie Rock
TTITLE0=Further South
TTITLE1=Host Of The Party
TTITLE2=Legs And Brains
TTITLE3=I Still Miss Her Dog
TTITLE4=Nothing But Sky
TTITLE5=Here Comes Sisyphus
TTITLE6=The Only Son
TTITLE7=Ripped It Away
TTITLE8=Hole In Your Story
TTITLE9=Navigator Type
TTITLE10=Just As You Are
EXTD=
EXTT0=
EXTT1=
EXTT2=
EXTT3=
EXTT4=
EXTT5=
EXTT6=
EXTT7=
EXTT8=
EXTT9=
EXTT10=
PLAYORDER=
